<svg xmlns="http://www.w3.org/2000/svg" width="20" height="20" viewBox="0 0 20 20">
    <g fill="none" fill-rule="evenodd">
        <g fill="#3A3A3A">
            <g>
                <g>
                    <g>
                        <g>
                            <g>
                                <path d="M8.125 0c4.426 0 8.021 3.594 8.123 8.06v.065h.002v3.125c0 .999-.78 1.815-1.765 1.872l-.11.003h-1.25c-.999 0-1.815-.78-1.872-1.765l-.003-.11V10c0-.999.78-1.815 1.765-1.872l.11-.003h1.873v-.053c-.096-3.787-3.139-6.822-6.873-6.822-3.734 0-6.777 3.035-6.873 6.822v.053h1.873c.999 0 1.815.78 1.872 1.765L5 10v1.25c0 .87-.593 1.603-1.398 1.814.977 1.025 2.285 1.7 3.72 1.885l.232.025c.344.031.598.335.566.68-.028.318-.292.56-.605.568l-.117-.007c-2.168-.209-4.113-1.349-5.365-3.09h-.158c-.999 0-1.815-.78-1.872-1.765L0 11.25V8.125h.001l.001-.064C.104 3.594 3.7 0 8.125 0zm-5 9.375H1.25v1.875c0 .32.241.585.552.62l.073.005h1.25c.32 0 .585-.241.62-.552l.005-.073V10c0-.32-.241-.585-.552-.62l-.073-.005zm11.875 0h-1.875c-.32 0-.585.241-.62.552L12.5 10v1.25c0 .32.241.585.552.62l.073.005h1.25c.32 0 .585-.241.62-.552L15 11.25V9.375zm-9.063-3.75c.518 0 .938.42.938.938 0 .517-.42.937-.938.937C5.42 7.5 5 7.08 5 6.562c0-.517.42-.937.938-.937zm4.375 0c.518 0 .938.42.938.938 0 .517-.42.937-.938.937-.517 0-.937-.42-.937-.938 0-.517.42-.937.938-.937z" transform="translate(-1380 -4977) translate(1356 4535) translate(1 423) translate(0 9) translate(23 10) translate(1.875 1.875)"/>
                            </g>
                        </g>
                    </g>
                </g>
            </g>
        </g>
    </g>
</svg>
