<svg xmlns="http://www.w3.org/2000/svg" width="20" height="20" viewBox="0 0 20 20">
    <g fill="none" fill-rule="evenodd">
        <g fill="#6E6E6E">
            <g>
                <g>
                    <g>
                        <g>
                            <g>
                                <path d="M14.375 0c.999 0 1.815.78 1.872 1.765l.003.11v8.75c0 .999-.78 1.815-1.765 1.872l-.11.003H8.75v1.25h1.875c.345 0 .625.28.625.625 0 .32-.241.585-.552.62l-.073.005h-5C5.28 15 5 14.72 5 14.375c0-.32.241-.585.552-.62l.073-.005H7.5V12.5H1.875c-.999 0-1.815-.78-1.872-1.765L0 10.625v-8.75C0 .876.78.06 1.765.003L1.875 0h12.5zm0 1.25h-12.5c-.32 0-.585.241-.62.552l-.005.073v8.75c0 .32.241.585.552.62l.073.005h12.5c.32 0 .585-.241.62-.552l.005-.073v-8.75c0-.32-.241-.585-.552-.62l-.073-.005z" transform="translate(-433 -271) translate(393) translate(16 253) translate(24 4) translate(0 14) translate(1.875 2.5)"/>
                            </g>
                        </g>
                    </g>
                </g>
            </g>
        </g>
    </g>
</svg>
