<svg xmlns="http://www.w3.org/2000/svg" width="20" height="20" viewBox="0 0 20 20">
    <g fill="none" fill-rule="evenodd">
        <g fill="#6E6E6E">
            <g>
                <g>
                    <g>
                        <g>
                            <g>
                                <path d="M9.375 0c.999 0 1.815.78 1.872 1.765l.003.11v13.75c0 .999-.78 1.815-1.765 1.872l-.11.003h-7.5c-.999 0-1.815-.78-1.872-1.765L0 15.625V1.875C0 .876.78.06 1.765.003L1.875 0h7.5zm0 1.25h-7.5c-.32 0-.585.241-.62.552l-.005.073v13.75c0 .32.241.585.552.62l.073.005h7.5c.32 0 .585-.241.62-.552l.005-.073V1.875c0-.32-.241-.585-.552-.62l-.073-.005zM6.25 13.125c.345 0 .625.28.625.625 0 .32-.241.585-.552.62l-.073.005H5c-.345 0-.625-.28-.625-.625 0-.32.241-.585.552-.62L5 13.124h1.25z" transform="translate(-433 -320) translate(393) translate(16 253) translate(24 53) translate(0 14) translate(4.375 1.25)"/>
                            </g>
                        </g>
                    </g>
                </g>
            </g>
        </g>
    </g>
</svg>
