<svg xmlns="http://www.w3.org/2000/svg" width="20" height="20" viewBox="0 0 20 20">
    <g fill="none" fill-rule="evenodd">
        <g fill="#6E6E6E">
            <g>
                <g>
                    <g>
                        <g>
                            <g>
                                <path d="M11.741 0c2.94 0 5.358 2.293 5.53 5.208l.006.163.221 7.392c.048 1.605-1.037 3.024-2.599 3.4-1.507.363-3.043-.437-3.617-1.861l-.05-.135-.49-1.395H6.693l-.483 1.406c-.484 1.41-1.904 2.254-3.353 2.039l-.136-.024-.14-.03C1.078 15.798.02 14.462 0 12.928l.001-.144.212-7.406C.297 2.438 2.663.087 5.586.002L5.749 0h5.992zm0 1.25H5.75c-2.272 0-4.14 1.768-4.28 4.016l-.007.148-.211 7.406c-.03 1.003.648 1.89 1.625 2.128.877.213 1.772-.248 2.113-1.072l.04-.105.627-1.827c.079-.227.279-.387.512-.417l.08-.005h4.937c.239 0 .454.136.559.345l.03.073.637 1.813c.316.902 1.265 1.419 2.196 1.195.947-.228 1.617-1.063 1.642-2.027V12.8l-.221-7.392c-.068-2.267-1.888-4.08-4.14-4.156l-.147-.002zm.134 3.125c1.38 0 2.5 1.12 2.5 2.5s-1.12 2.5-2.5 2.5c-1.381 0-2.5-1.12-2.5-2.5s1.119-2.5 2.5-2.5zm-6.25 0c.32 0 .584.241.62.552L6.25 5v1.25H7.5c.345 0 .625.28.625.625 0 .32-.242.585-.552.62L7.5 7.5H6.25v1.25c0 .345-.28.625-.625.625-.32 0-.585-.241-.621-.552L5 8.75V7.5H3.75c-.345 0-.625-.28-.625-.625 0-.32.241-.585.552-.62l.073-.005H5V5c0-.345.28-.625.625-.625zm6.25 1.25c-.69 0-1.25.56-1.25 1.25s.56 1.25 1.25 1.25 1.25-.56 1.25-1.25-.56-1.25-1.25-1.25z" transform="translate(-433 -369) translate(393) translate(16 253) translate(24 102) translate(0 14) translate(1.25 1.875)"/>
                            </g>
                        </g>
                    </g>
                </g>
            </g>
        </g>
    </g>
</svg>
